# xmcd CD database file
#
# Track frame offsets:
#	150
#	14726
#	29504
#	43760
#	58643
#	74215
#	89529
#	111092
#	125271
#	139736
#	153574
#	169571
#	181855
#	195734
#
# Disc length: 2881 seconds
#
# Revision: 0
# Processed by: cddbd v1.5.2PL0 Copyright (c) Steve Scherf et al.
# Submitted via: CDex 1.79
#
DISCID=cb0b3f0e
DTITLE=Louis Armstrong - Satchmo's Greatest Vol. 1 (1932-1933)
DYEAR=1969
DGENRE=Jazz
TTITLE0=That's My Home #1
TTITLE1=That's My Home #2
TTITLE2=Hobo, You Can't Ride This Train
TTITLE3=I Hate To Leave You Now
TTITLE4=You'll Wish You'd Never Been Born
TTITLE5=I've Got The World On A String
TTITLE6=Medley Of Armstrong Hits, Part 1: When Your Smiling - St. James Infirmary - Dinah
TTITLE7=I Gotta Right To Sing The Blues
TTITLE8=Hustlin' And Bustlin' For Baby
TTITLE9=Sittin' In The Dark
TTITLE10=High Society
TTITLE11=He's A Son Of The South
TTITLE12=Some Sweet Day
TTITLE13=Medley Of Armstrong Hits, Part 2 - You Rascal You - Sleepy Time Down South - Nobody's Sweetheart
EXTD=YEAR: 1969
EXTT0=
EXTT1=
EXTT2=
EXTT3=
EXTT4=
EXTT5=
EXTT6=
EXTT7=
EXTT8=
EXTT9=
EXTT10=
EXTT11=
EXTT12=
EXTT13=
PLAYORDER=
